<?xml version="1.0" encoding="UTF-8" standalone="no"?>
<svg width="110px" height="30px" viewBox="0 0 110 30" version="1.1" xmlns="http://www.w3.org/2000/svg" xmlns:xlink="http://www.w3.org/1999/xlink">
    <!-- Generator: sketchtool 41.2 (35397) - http://www.bohemiancoding.com/sketch -->
    <title>cota-logo</title>
    <desc>Created with sketchtool.</desc>
    <defs></defs>
    <g id="Page-1" stroke="none" stroke-width="1" fill="none" fill-rule="evenodd">
        <g id="02-navbar" transform="translate(-43.000000, -66.000000)" fill="#FFFFFF">
            <g id="cota-logo" transform="translate(43.000000, 66.000000)">
                <path d="M88.4273307,22.7347074 L85.6131078,29.9999999 L79.142857,29.9999999 L91.4488595,0 L97.7665329,0.0310710628 L110,29.9907765 L103.627824,29.9907765 L100.73456,22.6999827 L88.4273307,22.7347074 Z M94.4695135,7.1640403 L98.7714467,17.1557691 L90.5416615,17.1557691 L94.4695135,7.1640403 Z M58.5714285,5.62184453 L67.6144787,5.62184453 L67.6144787,29.9034297 L73.2068861,29.9034297 L73.2068861,27.429753 L73.2068861,5.62184453 L82.2857141,5.62184453 L82.2857141,0 L58.5714285,0 L58.5714285,5.62184453 Z M15.2000002,24.2909465 C9.06049787,24.2979778 5.76636727,20.3218942 5.76636727,15.107419 C5.76636727,9.89348915 9.96703575,5.66705427 15.1502629,5.66705427 C19.186178,5.66705427 21.3496496,7.7156565 21.3496496,7.7156565 L24.235543,3.03228028 C23.4356222,2.42865965 20.2857982,0.0932422084 15.0678862,0.0932422084 C12.8377545,0.0932422084 10.8010996,0.48802209 8.95954735,1.27703657 C7.11420141,2.06659634 5.53549579,3.14460714 4.21259142,4.51597648 C2.89131291,5.88680053 1.85835276,7.48009724 1.11479487,9.29150438 C0.372320894,11.1072737 0,13.0500924 0,15.1265037 C0,17.2863422 0.372320894,19.23734 1.11479487,21.066196 C1.85835276,22.8945067 2.89131291,24.4796243 4.21259142,25.8199129 C5.53549579,27.1661995 7.09956873,28.2251257 8.91564924,29.0005082 C10.7338976,29.7731645 12.7200529,30.0230217 15.2000002,29.9827905 L15.2000002,24.2909465 Z M15.2000002,29.9827905 C31.7865577,30.0179934 29.7542382,5.6141625 41.9925942,5.6141625 C48.078713,5.6141625 51.3764899,9.84005209 51.3764899,15.0545273 C51.3764899,20.2684571 47.1758213,24.494892 41.9925942,24.494892 C37.9566791,24.494892 35.7932074,22.4462898 35.7932074,22.4462898 L32.9073139,27.129666 C33.7072348,27.7332866 36.8570588,30.0687039 42.0749708,29.9901848 C44.3051025,30.0687039 46.3417573,29.6739242 48.1833096,28.8849097 C50.0286556,28.0953499 51.6073613,27.0173391 52.9302656,25.6459698 C54.2515442,24.2751457 55.2845042,22.681849 56.0280622,20.8704419 C56.7705362,19.0546726 57.142857,17.1118539 57.142857,15.0354426 C57.142857,12.875604 56.7705362,10.9246062 56.0280622,9.09575027 C55.2845042,7.26743956 54.2515442,5.68232202 52.9302656,4.34203342 C51.6073613,2.99574677 50.0432882,1.93682063 48.2272079,1.16143805 C46.4089593,0.388781845 44.4433002,0 42.3226428,0 C34.3375248,0 29.7672451,7.39830584 28.5055814,9.86240844 C28.5055814,9.86131787 26.3231414,13.8167505 25.1080855,16.0556541 C23.2860435,19.4129189 23.3006762,19.298411 23.3006762,19.298411 C21.7116735,22.2461734 18.7159816,24.2941172 15.2000002,24.2909465 L15.2000002,29.9827905 Z"></path>
            </g>
        </g>
    </g>
</svg>
