<?xml version="1.0" encoding="UTF-8" standalone="no"?>
<svg width="104px" height="54px" viewBox="0 0 104 54" version="1.1" xmlns="http://www.w3.org/2000/svg" xmlns:xlink="http://www.w3.org/1999/xlink">
    <!-- Generator: Sketch 39.1 (31720) - http://www.bohemiancoding.com/sketch -->
    <title>logo-symbol-icon-white</title>
    <desc>Created with Sketch.</desc>
    <defs></defs>
    <g id="Symbols" stroke="none" stroke-width="1" fill="none" fill-rule="evenodd">
        <g id="logo-symbol-icon-white" fill="#FFFFFF">
            <path d="M28.6000004,42.4849109 C17.8558713,42.4966296 12.0911427,35.8698237 12.0911427,27.1790318 C12.0911427,18.4891486 19.4423126,11.4450905 28.5129601,11.4450905 C35.5758116,11.4450905 39.361887,14.8594275 39.361887,14.8594275 L44.4122004,7.05380046 C43.0123389,6.0477661 37.500147,2.15540368 28.3688009,2.15540368 C24.4660704,2.15540368 20.9019243,2.81337015 17.6792079,4.1283943 C14.4498525,5.44432723 11.6871177,7.24101192 9.37203502,9.52662748 C7.05979761,11.8113343 5.25211734,14.4668288 3.95089104,17.4858407 C2.65156157,20.5121229 2,23.750154 2,27.2108395 C2,30.8105704 2.65156157,34.0622335 3.95089104,37.1103267 C5.25211734,40.1575112 7.05979761,42.7993738 9.37203502,45.0331882 C11.6871177,47.2769992 14.4242453,49.0418762 17.6023862,50.3341805 C20.7843208,51.6219408 24.2600926,52.0383694 28.6000004,51.9713175 L28.6000004,42.4849109 L28.6000004,42.4849109 Z M28.6000004,51.9713175 C57.626476,52.0299891 54.0699172,11.3569375 75.4870399,11.3569375 C86.1377479,11.3569375 91.9088573,18.4000869 91.9088573,27.0908788 C91.9088573,35.7807619 84.5576874,42.8248201 75.4870399,42.8248201 C68.4241884,42.8248201 64.638113,39.410483 64.638113,39.410483 L59.5877996,47.2161101 C60.9876611,48.2221444 66.499853,52.1145069 75.6311991,51.9836412 C79.5339296,52.1145069 83.0980757,51.4565404 86.3207921,50.1415162 C89.5501475,48.8255833 92.3128823,47.0288986 94.627965,44.7432831 C96.9402024,42.4585763 98.7478827,39.8030818 100.049109,36.7840699 C101.348438,33.7577876 102,30.5197565 102,27.059071 C102,23.4593401 101.348438,20.2076771 100.049109,17.1595838 C98.7478827,14.1123993 96.9402024,11.4705367 94.627965,9.23672237 C92.3128823,6.9929113 89.5757547,5.22803439 86.3976138,3.93573008 C83.2156792,2.64796974 79.7757756,2 76.064625,2 C62.0906685,2 54.0926792,14.3305097 51.8847675,18.4373474 C51.8847675,18.4355298 48.0654976,25.0279176 45.9391497,28.7594236 C42.7505762,34.354865 42.7761834,34.1640183 42.7761834,34.1640183 C39.9954286,39.0769558 34.7529678,42.4901953 28.6000004,42.4849109 C28.6000004,48.3403314 28.6000004,47.7950405 28.6000004,51.9713175 Z"></path>
        </g>
    </g>
</svg>
